<svg width="85" height="50" viewBox="0 0 85 50" fill="none" xmlns="http://www.w3.org/2000/svg">
<path d="M62.5532 13L73.2766 2.17447L69.8043 13L73.2766 23.7234L62.5532 13ZM62.5532 13H56.1192M29.8213 13L40.1872 2.58298M29.8213 13H36.1532M29.8213 13L40.1872 23.1617M29.8213 13H25.634M36.1532 13L45.3957 3.60426M36.1532 13H42.6383M36.1532 13L45.3957 22.3957M42.6383 13L51.0638 4.5234M42.6383 13H49.0213M42.6383 13L51.0638 21.4255M49.0213 13L56.834 5.44255M49.0213 13H56.1192M49.0213 13L56.834 20.5064M56.1192 13L62.5532 6.56596M56.1192 13.2553L62.5532 19.383M25.634 13L30.7404 25L21.9064 20.7617L12 13L21.9064 4.93191L30.7404 1L25.634 13Z" stroke="#0A0A0A" stroke-width="2" stroke-linecap="round" stroke-linejoin="round"/>
<circle cx="20.9998" cy="10.5999" r="1" fill="#0A0A0A" stroke="#0A0A0A" stroke-width="0.4"/>
<path d="M5.47159 49.5284C4.41477 49.5284 3.47159 49.2585 2.64205 48.7188C1.81818 48.1733 1.17045 47.3977 0.698864 46.392C0.232955 45.3807 0 44.1676 0 42.7528C0 41.3381 0.235795 40.1278 0.707386 39.1222C1.18466 38.1165 1.83807 37.3466 2.66761 36.8125C3.49716 36.2784 4.4375 36.0114 5.48864 36.0114C6.30114 36.0114 6.95455 36.1477 7.44886 36.4205C7.94886 36.6875 8.33523 37 8.60795 37.358C8.88636 37.7159 9.10227 38.0313 9.25568 38.304H9.40909V31.8182H11.9574V49.2727H9.46875V47.2358H9.25568C9.10227 47.5142 8.88068 47.8324 8.59091 48.1903C8.30682 48.5483 7.91477 48.8608 7.41477 49.1278C6.91477 49.3949 6.26705 49.5284 5.47159 49.5284ZM6.03409 47.3551C6.76705 47.3551 7.38636 47.1619 7.89205 46.7756C8.40341 46.3835 8.78977 45.8409 9.05114 45.1477C9.31818 44.4545 9.4517 43.6477 9.4517 42.7273C9.4517 41.8182 9.32102 41.0227 9.05966 40.3409C8.7983 39.6591 8.41477 39.1278 7.90909 38.7472C7.40341 38.3665 6.77841 38.1761 6.03409 38.1761C5.26705 38.1761 4.62784 38.375 4.11648 38.7727C3.60511 39.1705 3.21875 39.7131 2.95739 40.4006C2.7017 41.0881 2.57386 41.8636 2.57386 42.7273C2.57386 43.6023 2.70455 44.3892 2.96591 45.0881C3.22727 45.7869 3.61364 46.3409 4.125 46.75C4.64205 47.1534 5.27841 47.3551 6.03409 47.3551Z" fill="#0A0A0A"/>
<path d="M21.2365 49.5369C19.9467 49.5369 18.8359 49.2614 17.9041 48.7102C16.978 48.1534 16.2621 47.3722 15.7564 46.3665C15.2564 45.3551 15.0064 44.1705 15.0064 42.8125C15.0064 41.4716 15.2564 40.2898 15.7564 39.267C16.2621 38.2443 16.9666 37.446 17.87 36.8722C18.7791 36.2983 19.8416 36.0114 21.0575 36.0114C21.7962 36.0114 22.5121 36.1335 23.2053 36.3778C23.8984 36.6222 24.5206 37.0057 25.0717 37.5284C25.6229 38.0511 26.0575 38.7301 26.3757 39.5653C26.6939 40.3949 26.853 41.4034 26.853 42.5909V43.4943H16.4467V41.5852H24.3558C24.3558 40.9148 24.2195 40.321 23.9467 39.804C23.674 39.2813 23.2905 38.8693 22.7962 38.5682C22.3075 38.267 21.7337 38.1165 21.0746 38.1165C20.3587 38.1165 19.7337 38.2926 19.1996 38.6449C18.6712 38.9915 18.2621 39.446 17.9723 40.0085C17.6882 40.5653 17.5462 41.1705 17.5462 41.8239V43.3153C17.5462 44.1903 17.6996 44.9347 18.0064 45.5483C18.3189 46.1619 18.7536 46.6307 19.3104 46.9545C19.8672 47.2727 20.5178 47.4318 21.2621 47.4318C21.745 47.4318 22.1854 47.3636 22.5831 47.2273C22.9808 47.0852 23.3246 46.875 23.6143 46.5966C23.9041 46.3182 24.1257 45.9744 24.2791 45.5653L26.6911 46C26.4979 46.7102 26.1513 47.3324 25.6513 47.8665C25.157 48.3949 24.5348 48.8068 23.7848 49.1023C23.0405 49.392 22.1911 49.5369 21.2365 49.5369Z" fill="#0A0A0A"/>
<path d="M35.9105 36.1818V38.2273H28.5128V36.1818H35.9105ZM30.5412 49.2727V34.6648C30.5412 33.8466 30.7202 33.1676 31.0781 32.6278C31.4361 32.0824 31.9105 31.6761 32.5014 31.4091C33.0923 31.1364 33.7344 31 34.4276 31C34.9389 31 35.3764 31.0426 35.7401 31.1278C36.1037 31.2074 36.3736 31.2813 36.5497 31.3494L35.9531 33.4119C35.8338 33.3778 35.6804 33.3381 35.4929 33.2926C35.3054 33.2415 35.0781 33.2159 34.8111 33.2159C34.1918 33.2159 33.7486 33.3693 33.4815 33.6761C33.2202 33.983 33.0895 34.4261 33.0895 35.0057V49.2727H30.5412Z" fill="#0A0A0A"/>
<path d="M41.951 49.5625C41.1214 49.5625 40.3714 49.4091 39.701 49.1023C39.0305 48.7898 38.4993 48.3381 38.1072 47.7472C37.7209 47.1563 37.5277 46.4318 37.5277 45.5739C37.5277 44.8352 37.6697 44.2273 37.9538 43.75C38.2379 43.2727 38.6214 42.8949 39.1044 42.6165C39.5874 42.3381 40.1271 42.1278 40.7237 41.9858C41.3203 41.8438 41.9283 41.7358 42.5476 41.6619C43.3317 41.571 43.968 41.4972 44.4567 41.4403C44.9453 41.3778 45.3004 41.2784 45.522 41.142C45.7436 41.0057 45.8544 40.7841 45.8544 40.4773V40.4176C45.8544 39.6733 45.6442 39.0966 45.2237 38.6875C44.8089 38.2784 44.1896 38.0739 43.3658 38.0739C42.5078 38.0739 41.8317 38.2642 41.3374 38.6449C40.8487 39.0199 40.5107 39.4375 40.3232 39.8977L37.9283 39.3523C38.2124 38.5568 38.6271 37.9148 39.1726 37.4261C39.7237 36.9318 40.3572 36.5739 41.0732 36.3523C41.7891 36.125 42.5419 36.0114 43.3317 36.0114C43.8544 36.0114 44.4084 36.0739 44.9936 36.1989C45.5845 36.3182 46.1357 36.5398 46.647 36.8636C47.1641 37.1875 47.5874 37.6506 47.9169 38.2528C48.2464 38.8494 48.4112 39.625 48.4112 40.5795V49.2727H45.9226V47.483H45.8203C45.6555 47.8125 45.4084 48.1364 45.0788 48.4545C44.7493 48.7727 44.326 49.0369 43.8089 49.2472C43.2919 49.4574 42.6726 49.5625 41.951 49.5625ZM42.505 47.517C43.2095 47.517 43.8118 47.3778 44.3118 47.0994C44.8175 46.821 45.201 46.4574 45.4624 46.0085C45.7294 45.554 45.8629 45.0682 45.8629 44.5511V42.8636C45.772 42.9545 45.5959 43.0398 45.3345 43.1193C45.0788 43.1932 44.7862 43.2585 44.4567 43.3153C44.1271 43.3665 43.8061 43.4148 43.4936 43.4602C43.1811 43.5 42.9197 43.5341 42.7095 43.5625C42.2152 43.625 41.7635 43.7301 41.3544 43.8778C40.951 44.0256 40.6271 44.2386 40.3828 44.517C40.1442 44.7898 40.0249 45.1534 40.0249 45.608C40.0249 46.2386 40.2578 46.7159 40.7237 47.0398C41.1896 47.358 41.7834 47.517 42.505 47.517Z" fill="#0A0A0A"/>
<path d="M57.3196 49.5369C56.0526 49.5369 54.9616 49.25 54.0469 48.6761C53.1378 48.0966 52.4389 47.2983 51.9503 46.2813C51.4616 45.2642 51.2173 44.0994 51.2173 42.7869C51.2173 41.4574 51.4673 40.2841 51.9673 39.267C52.4673 38.2443 53.1719 37.446 54.081 36.8722C54.9901 36.2983 56.0611 36.0114 57.294 36.0114C58.2884 36.0114 59.1747 36.196 59.9531 36.5653C60.7315 36.929 61.3594 37.4403 61.8366 38.0994C62.3196 38.7585 62.6065 39.5284 62.6974 40.4091H60.2173C60.081 39.7955 59.7685 39.267 59.2798 38.8239C58.7969 38.3807 58.1491 38.1591 57.3366 38.1591C56.6264 38.1591 56.0043 38.3466 55.4702 38.7216C54.9418 39.0909 54.5298 39.6193 54.2344 40.3068C53.9389 40.9886 53.7912 41.7955 53.7912 42.7273C53.7912 43.6818 53.9361 44.5057 54.2259 45.1989C54.5156 45.892 54.9247 46.429 55.4531 46.8097C55.9872 47.1903 56.6151 47.3807 57.3366 47.3807C57.8196 47.3807 58.2571 47.2926 58.6491 47.1165C59.0469 46.9347 59.3793 46.6761 59.6463 46.3409C59.919 46.0057 60.1094 45.6023 60.2173 45.1307H62.6974C62.6065 45.9773 62.331 46.733 61.8707 47.3977C61.4105 48.0625 60.794 48.5852 60.0213 48.9659C59.2543 49.3466 58.3537 49.5369 57.3196 49.5369Z" fill="#0A0A0A"/>
<path d="M71.5334 36.1818V38.2273H64.3828V36.1818H71.5334ZM66.3004 33.0455H68.8487V45.429C68.8487 45.9233 68.9226 46.2955 69.0703 46.5455C69.218 46.7898 69.4084 46.9574 69.6413 47.0483C69.88 47.1335 70.1385 47.1761 70.4169 47.1761C70.6214 47.1761 70.8004 47.1619 70.9538 47.1335C71.1072 47.1051 71.2266 47.0824 71.3118 47.0653L71.772 49.1705C71.6243 49.2273 71.4141 49.2841 71.1413 49.3409C70.8686 49.4034 70.5277 49.4375 70.1186 49.4432C69.4482 49.4545 68.8232 49.3352 68.2436 49.0852C67.6641 48.8352 67.1953 48.4489 66.8374 47.9261C66.4794 47.4034 66.3004 46.7472 66.3004 45.9574V33.0455Z" fill="#0A0A0A"/>
<path d="M78.1619 49.5625C77.3324 49.5625 76.5824 49.4091 75.9119 49.1023C75.2415 48.7898 74.7102 48.3381 74.3182 47.7472C73.9318 47.1563 73.7386 46.4318 73.7386 45.5739C73.7386 44.8352 73.8807 44.2273 74.1648 43.75C74.4489 43.2727 74.8324 42.8949 75.3153 42.6165C75.7983 42.3381 76.3381 42.1278 76.9347 41.9858C77.5313 41.8438 78.1392 41.7358 78.7585 41.6619C79.5426 41.571 80.179 41.4972 80.6676 41.4403C81.1562 41.3778 81.5114 41.2784 81.733 41.142C81.9545 41.0057 82.0653 40.7841 82.0653 40.4773V40.4176C82.0653 39.6733 81.8551 39.0966 81.4347 38.6875C81.0199 38.2784 80.4006 38.0739 79.5767 38.0739C78.7188 38.0739 78.0426 38.2642 77.5483 38.6449C77.0597 39.0199 76.7216 39.4375 76.5341 39.8977L74.1392 39.3523C74.4233 38.5568 74.8381 37.9148 75.3835 37.4261C75.9347 36.9318 76.5682 36.5739 77.2841 36.3523C78 36.125 78.7528 36.0114 79.5426 36.0114C80.0653 36.0114 80.6193 36.0739 81.2045 36.1989C81.7955 36.3182 82.3466 36.5398 82.858 36.8636C83.375 37.1875 83.7983 37.6506 84.1278 38.2528C84.4574 38.8494 84.6222 39.625 84.6222 40.5795V49.2727H82.1335V47.483H82.0312C81.8665 47.8125 81.6193 48.1364 81.2898 48.4545C80.9602 48.7727 80.5369 49.0369 80.0199 49.2472C79.5028 49.4574 78.8835 49.5625 78.1619 49.5625ZM78.7159 47.517C79.4205 47.517 80.0227 47.3778 80.5227 47.0994C81.0284 46.821 81.4119 46.4574 81.6733 46.0085C81.9403 45.554 82.0739 45.0682 82.0739 44.5511V42.8636C81.983 42.9545 81.8068 43.0398 81.5455 43.1193C81.2898 43.1932 80.9972 43.2585 80.6676 43.3153C80.3381 43.3665 80.017 43.4148 79.7045 43.4602C79.392 43.5 79.1307 43.5341 78.9205 43.5625C78.4261 43.625 77.9744 43.7301 77.5653 43.8778C77.1619 44.0256 76.8381 44.2386 76.5938 44.517C76.3551 44.7898 76.2358 45.1534 76.2358 45.608C76.2358 46.2386 76.4688 46.7159 76.9347 47.0398C77.4006 47.358 77.9943 47.517 78.7159 47.517Z" fill="#0A0A0A"/>
</svg>
