<svg width="160" height="40" viewBox="0 0 160 40" fill="none" xmlns="http://www.w3.org/2000/svg">
<path d="M51.5532 20L62.2766 9.17447L58.8043 20L62.2766 30.7234L51.5532 20ZM51.5532 20H45.1192M18.8213 20L29.1872 9.58298M18.8213 20H25.1532M18.8213 20L29.1872 30.1617M18.8213 20H14.634M25.1532 20L34.3957 10.6043M25.1532 20H31.6383M25.1532 20L34.3957 29.3957M31.6383 20L40.0638 11.5234M31.6383 20H38.0213M31.6383 20L40.0638 28.4255M38.0213 20L45.834 12.4426M38.0213 20H45.1192M38.0213 20L45.834 27.5064M45.1192 20L51.5532 13.566M45.1192 20.2553L51.5532 26.383M14.634 20L19.7404 32L10.9064 27.7617L1 20L10.9064 11.9319L19.7404 8L14.634 20Z" stroke="#0A0A0A" stroke-width="2" stroke-linecap="round" stroke-linejoin="round"/>
<circle cx="9.9998" cy="17.5999" r="1" fill="#0A0A0A" stroke="#0A0A0A" stroke-width="0.4"/>
<path d="M79.748 29.2472C78.6911 29.2472 77.748 28.9773 76.9184 28.4375C76.0945 27.892 75.4468 27.1165 74.9752 26.1108C74.5093 25.0994 74.2764 23.8864 74.2764 22.4716C74.2764 21.0568 74.5122 19.8466 74.9838 18.8409C75.461 17.8352 76.1144 17.0653 76.944 16.5313C77.7735 15.9972 78.7139 15.7301 79.765 15.7301C80.5775 15.7301 81.2309 15.8665 81.7252 16.1392C82.2252 16.4063 82.6116 16.7188 82.8843 17.0767C83.1627 17.4347 83.3786 17.75 83.532 18.0227H83.6855V11.5369H86.2338V28.9915H83.7451V26.9545H83.532C83.3786 27.233 83.157 27.5511 82.8673 27.9091C82.5832 28.267 82.1911 28.5795 81.6911 28.8466C81.1911 29.1136 80.5434 29.2472 79.748 29.2472ZM80.3105 27.0739C81.0434 27.0739 81.6627 26.8807 82.1684 26.4943C82.6798 26.1023 83.0661 25.5597 83.3275 24.8665C83.5945 24.1733 83.7281 23.3665 83.7281 22.446C83.7281 21.5369 83.5974 20.7415 83.336 20.0597C83.0747 19.3778 82.6911 18.8466 82.1855 18.4659C81.6798 18.0852 81.0548 17.8949 80.3105 17.8949C79.5434 17.8949 78.9042 18.0938 78.3928 18.4915C77.8815 18.8892 77.4951 19.4318 77.2338 20.1193C76.9781 20.8068 76.8502 21.5824 76.8502 22.446C76.8502 23.321 76.9809 24.108 77.2423 24.8068C77.5036 25.5057 77.89 26.0597 78.4014 26.4688C78.9184 26.8722 79.5548 27.0739 80.3105 27.0739Z" fill="#0A0A0A"/>
<path d="M95.5129 29.2557C94.2231 29.2557 93.1123 28.9801 92.1805 28.429C91.2544 27.8722 90.5384 27.0909 90.0328 26.0852C89.5328 25.0739 89.2828 23.8892 89.2828 22.5313C89.2828 21.1903 89.5328 20.0085 90.0328 18.9858C90.5384 17.9631 91.243 17.1648 92.1464 16.5909C93.0555 16.017 94.118 15.7301 95.3339 15.7301C96.0725 15.7301 96.7884 15.8523 97.4816 16.0966C98.1748 16.3409 98.797 16.7244 99.3481 17.2472C99.8992 17.7699 100.334 18.4489 100.652 19.2841C100.97 20.1136 101.129 21.1222 101.129 22.3097V23.2131H90.7231V21.304H98.6322C98.6322 20.6335 98.4958 20.0398 98.2231 19.5227C97.9504 19 97.5669 18.5881 97.0725 18.2869C96.5839 17.9858 96.01 17.8352 95.3509 17.8352C94.635 17.8352 94.01 18.0114 93.4759 18.3636C92.9475 18.7102 92.5384 19.1648 92.2487 19.7273C91.9646 20.2841 91.8225 20.8892 91.8225 21.5426V23.0341C91.8225 23.9091 91.9759 24.6534 92.2828 25.267C92.5953 25.8807 93.0299 26.3494 93.5867 26.6733C94.1436 26.9915 94.7941 27.1506 95.5384 27.1506C96.0214 27.1506 96.4617 27.0824 96.8595 26.946C97.2572 26.804 97.6009 26.5938 97.8907 26.3153C98.1805 26.0369 98.4021 25.6932 98.5555 25.2841L100.967 25.7188C100.774 26.429 100.428 27.0511 99.9276 27.5852C99.4333 28.1136 98.8112 28.5256 98.0612 28.821C97.3169 29.1108 96.4674 29.2557 95.5129 29.2557Z" fill="#0A0A0A"/>
<path d="M110.187 15.9006V17.946H102.789V15.9006H110.187ZM104.818 28.9915V14.3835C104.818 13.5653 104.997 12.8864 105.354 12.3466C105.712 11.8011 106.187 11.3949 106.778 11.1278C107.369 10.8551 108.011 10.7188 108.704 10.7188C109.215 10.7188 109.653 10.7614 110.016 10.8466C110.38 10.9261 110.65 11 110.826 11.0682L110.229 13.1307C110.11 13.0966 109.957 13.0568 109.769 13.0114C109.582 12.9602 109.354 12.9347 109.087 12.9347C108.468 12.9347 108.025 13.0881 107.758 13.3949C107.497 13.7017 107.366 14.1449 107.366 14.7244V28.9915H104.818Z" fill="#0A0A0A"/>
<path d="M116.227 29.2813C115.398 29.2813 114.648 29.1278 113.977 28.821C113.307 28.5085 112.776 28.0568 112.384 27.4659C111.997 26.875 111.804 26.1506 111.804 25.2926C111.804 24.554 111.946 23.946 112.23 23.4688C112.514 22.9915 112.898 22.6136 113.381 22.3352C113.864 22.0568 114.403 21.8466 115 21.7045C115.597 21.5625 116.205 21.4545 116.824 21.3807C117.608 21.2898 118.244 21.2159 118.733 21.1591C119.222 21.0966 119.577 20.9972 119.798 20.8608C120.02 20.7244 120.131 20.5028 120.131 20.196V20.1364C120.131 19.392 119.921 18.8153 119.5 18.4063C119.085 17.9972 118.466 17.7926 117.642 17.7926C116.784 17.7926 116.108 17.983 115.614 18.3636C115.125 18.7386 114.787 19.1562 114.6 19.6165L112.205 19.071C112.489 18.2756 112.903 17.6335 113.449 17.1449C114 16.6506 114.634 16.2926 115.35 16.071C116.065 15.8438 116.818 15.7301 117.608 15.7301C118.131 15.7301 118.685 15.7926 119.27 15.9176C119.861 16.0369 120.412 16.2585 120.923 16.5824C121.44 16.9063 121.864 17.3693 122.193 17.9716C122.523 18.5682 122.688 19.3438 122.688 20.2983V28.9915H120.199V27.2017H120.097C119.932 27.5313 119.685 27.8551 119.355 28.1733C119.026 28.4915 118.602 28.7557 118.085 28.9659C117.568 29.1761 116.949 29.2813 116.227 29.2813ZM116.781 27.2358C117.486 27.2358 118.088 27.0966 118.588 26.8182C119.094 26.5398 119.477 26.1761 119.739 25.7273C120.006 25.2727 120.139 24.7869 120.139 24.2699V22.5824C120.048 22.6733 119.872 22.7585 119.611 22.8381C119.355 22.9119 119.063 22.9773 118.733 23.0341C118.403 23.0852 118.082 23.1335 117.77 23.179C117.457 23.2188 117.196 23.2528 116.986 23.2813C116.492 23.3438 116.04 23.4489 115.631 23.5966C115.227 23.7443 114.903 23.9574 114.659 24.2358C114.421 24.5085 114.301 24.8722 114.301 25.3267C114.301 25.9574 114.534 26.4347 115 26.7585C115.466 27.0767 116.06 27.2358 116.781 27.2358Z" fill="#0A0A0A"/>
<path d="M131.596 29.2557C130.329 29.2557 129.238 28.9688 128.323 28.3949C127.414 27.8153 126.715 27.017 126.227 26C125.738 24.983 125.494 23.8182 125.494 22.5057C125.494 21.1761 125.744 20.0028 126.244 18.9858C126.744 17.9631 127.448 17.1648 128.357 16.5909C129.266 16.017 130.337 15.7301 131.57 15.7301C132.565 15.7301 133.451 15.9148 134.229 16.2841C135.008 16.6477 135.636 17.1591 136.113 17.8182C136.596 18.4773 136.883 19.2472 136.974 20.1278H134.494C134.357 19.5142 134.045 18.9858 133.556 18.5426C133.073 18.0994 132.426 17.8778 131.613 17.8778C130.903 17.8778 130.281 18.0653 129.747 18.4403C129.218 18.8097 128.806 19.3381 128.511 20.0256C128.215 20.7074 128.068 21.5142 128.068 22.446C128.068 23.4006 128.212 24.2244 128.502 24.9176C128.792 25.6108 129.201 26.1477 129.729 26.5284C130.264 26.9091 130.891 27.0994 131.613 27.0994C132.096 27.0994 132.533 27.0114 132.926 26.8352C133.323 26.6534 133.656 26.3949 133.923 26.0597C134.195 25.7244 134.386 25.321 134.494 24.8494H136.974C136.883 25.696 136.607 26.4517 136.147 27.1165C135.687 27.7812 135.07 28.304 134.298 28.6847C133.531 29.0653 132.63 29.2557 131.596 29.2557Z" fill="#0A0A0A"/>
<path d="M145.81 15.9006V17.946H138.659V15.9006H145.81ZM140.577 12.7642H143.125V25.1477C143.125 25.642 143.199 26.0142 143.347 26.2642C143.494 26.5085 143.685 26.6761 143.918 26.767C144.156 26.8523 144.415 26.8949 144.693 26.8949C144.898 26.8949 145.077 26.8807 145.23 26.8523C145.384 26.8239 145.503 26.8011 145.588 26.7841L146.048 28.8892C145.901 28.946 145.69 29.0028 145.418 29.0597C145.145 29.1222 144.804 29.1563 144.395 29.1619C143.725 29.1733 143.1 29.054 142.52 28.804C141.94 28.554 141.472 28.1676 141.114 27.6449C140.756 27.1222 140.577 26.4659 140.577 25.6761V12.7642Z" fill="#0A0A0A"/>
<path d="M152.438 29.2813C151.609 29.2813 150.859 29.1278 150.188 28.821C149.518 28.5085 148.987 28.0568 148.595 27.4659C148.208 26.875 148.015 26.1506 148.015 25.2926C148.015 24.554 148.157 23.946 148.441 23.4688C148.725 22.9915 149.109 22.6136 149.592 22.3352C150.075 22.0568 150.614 21.8466 151.211 21.7045C151.808 21.5625 152.416 21.4545 153.035 21.3807C153.819 21.2898 154.455 21.2159 154.944 21.1591C155.433 21.0966 155.788 20.9972 156.009 20.8608C156.231 20.7244 156.342 20.5028 156.342 20.196V20.1364C156.342 19.392 156.131 18.8153 155.711 18.4063C155.296 17.9972 154.677 17.7926 153.853 17.7926C152.995 17.7926 152.319 17.983 151.825 18.3636C151.336 18.7386 150.998 19.1562 150.81 19.6165L148.416 19.071C148.7 18.2756 149.114 17.6335 149.66 17.1449C150.211 16.6506 150.845 16.2926 151.56 16.071C152.276 15.8438 153.029 15.7301 153.819 15.7301C154.342 15.7301 154.896 15.7926 155.481 15.9176C156.072 16.0369 156.623 16.2585 157.134 16.5824C157.651 16.9063 158.075 17.3693 158.404 17.9716C158.734 18.5682 158.899 19.3438 158.899 20.2983V28.9915H156.41V27.2017H156.308C156.143 27.5313 155.896 27.8551 155.566 28.1733C155.237 28.4915 154.813 28.7557 154.296 28.9659C153.779 29.1761 153.16 29.2813 152.438 29.2813ZM152.992 27.2358C153.697 27.2358 154.299 27.0966 154.799 26.8182C155.305 26.5398 155.688 26.1761 155.95 25.7273C156.217 25.2727 156.35 24.7869 156.35 24.2699V22.5824C156.259 22.6733 156.083 22.7585 155.822 22.8381C155.566 22.9119 155.274 22.9773 154.944 23.0341C154.614 23.0852 154.293 23.1335 153.981 23.179C153.668 23.2188 153.407 23.2528 153.197 23.2813C152.703 23.3438 152.251 23.4489 151.842 23.5966C151.438 23.7443 151.114 23.9574 150.87 24.2358C150.631 24.5085 150.512 24.8722 150.512 25.3267C150.512 25.9574 150.745 26.4347 151.211 26.7585C151.677 27.0767 152.271 27.2358 152.992 27.2358Z" fill="#0A0A0A"/>
</svg>
