<svg width="1440" height="1118" viewBox="0 0 1440 1118" fill="none" xmlns="http://www.w3.org/2000/svg">
<g clip-path="url(#clip0_18_82)">
<path d="M1714 0H-273V1118H1714V0Z" fill="#F7F8FA"/>
<g opacity="0.32" filter="url(#filter0_f_18_82)">
<path d="M-459.281 670.8C-123.975 447.2 99.5625 881.978 496.963 695.644C881.944 521.733 1006.13 322.978 1900.28 571.422V1217.38H-459.281V670.8Z" fill="url(#paint0_linear_18_82)"/>
</g>
<g opacity="0.22" filter="url(#filter1_f_18_82)">
<path d="M-372.35 322.978C0.212921 149.067 347.938 496.889 745.338 372.667C1117.9 260.867 1366.28 99.3778 1813.35 273.289V-99.3778H-372.35V322.978Z" fill="url(#paint1_linear_18_82)"/>
</g>
<g opacity="0.2" filter="url(#filter2_f_18_82)">
<path d="M37.4688 944.089C372.775 807.444 670.825 1043.47 1093.06 869.555C1378.69 757.755 1540.14 670.8 1838.19 770.178V1217.38H37.4688V944.089Z" fill="url(#paint2_linear_18_82)"/>
</g>
</g>
<defs>
<filter id="filter0_f_18_82" x="-639.281" y="274.542" width="2719.56" height="1122.84" filterUnits="userSpaceOnUse" color-interpolation-filters="sRGB">
<feFlood flood-opacity="0" result="BackgroundImageFix"/>
<feBlend mode="normal" in="SourceGraphic" in2="BackgroundImageFix" result="shape"/>
<feGaussianBlur stdDeviation="90" result="effect1_foregroundBlur_18_82"/>
</filter>
<filter id="filter1_f_18_82" x="-612.35" y="-339.378" width="2665.7" height="979.493" filterUnits="userSpaceOnUse" color-interpolation-filters="sRGB">
<feFlood flood-opacity="0" result="BackgroundImageFix"/>
<feBlend mode="normal" in="SourceGraphic" in2="BackgroundImageFix" result="shape"/>
<feGaussianBlur stdDeviation="120" result="effect1_foregroundBlur_18_82"/>
</filter>
<filter id="filter2_f_18_82" x="-142.531" y="546.663" width="2160.72" height="850.715" filterUnits="userSpaceOnUse" color-interpolation-filters="sRGB">
<feFlood flood-opacity="0" result="BackgroundImageFix"/>
<feBlend mode="normal" in="SourceGraphic" in2="BackgroundImageFix" result="shape"/>
<feGaussianBlur stdDeviation="90" result="effect1_foregroundBlur_18_82"/>
</filter>
<linearGradient id="paint0_linear_18_82" x1="-459.281" y1="454.542" x2="-12.7134" y2="1835.84" gradientUnits="userSpaceOnUse">
<stop stop-color="#D8E1F0"/>
<stop offset="1" stop-color="#4A7C9E"/>
</linearGradient>
<linearGradient id="paint1_linear_18_82" x1="1813.35" y1="-99.3778" x2="1596.39" y2="850.026" gradientUnits="userSpaceOnUse">
<stop stop-color="#C9D4E6"/>
<stop offset="1" stop-color="#0053CC"/>
</linearGradient>
<linearGradient id="paint2_linear_18_82" x1="37.4688" y1="1217.38" x2="286.43" y2="303.793" gradientUnits="userSpaceOnUse">
<stop stop-color="#E3E8F1"/>
<stop offset="1" stop-color="#C8D2E2"/>
</linearGradient>
<clipPath id="clip0_18_82">
<rect width="1987" height="1118" fill="white" transform="translate(-273)"/>
</clipPath>
</defs>
</svg>
